<svg width="20" height="21" viewBox="0 0 20 21" fill="none" xmlns="http://www.w3.org/2000/svg">
<path d="M17.8 6.82988C17.8 5.92988 17.6 5.42988 17.4 4.92988C17.2 4.32988 16.9 3.92988 16.4 3.52988C15.9 3.02988 15.5 2.82988 15 2.52988C14.5 2.32988 13.9 2.22988 13.1 2.12988H10C7.9 2.12988 7.5 2.12988 6.7 2.22988C5.8 2.22988 5.3 2.42988 4.8 2.62988C4.2 2.82988 3.8 3.02988 3.4 3.52988C2.9 3.92988 2.7 4.42988 2.4 4.92988C2.2 5.52988 2.1 6.02988 2.1 6.92988C2 7.62988 2 7.92988 2 10.1299C2 12.3299 2 12.6299 2.1 13.4299C2.1 14.3299 2.3 14.8299 2.5 15.3299C2.7 15.9299 3 16.3299 3.5 16.7299C4 17.1299 4.4 17.4299 4.9 17.7299C5.3 17.9299 6 18.0299 6.8 18.1299H10C12.1 18.1299 12.4 18.1299 13.2 18.0299C14.1 18.0299 14.6 17.8299 15.1 17.6299C15.7 17.4299 16.1 17.1299 16.5 16.6299C17 16.1299 17.2 15.7299 17.5 15.2299C17.7 14.7299 17.8 14.1299 17.9 13.3299C17.9 12.4299 18 12.3299 18 10.1299C17.9 8.02988 17.9 7.62988 17.8 6.82988ZM16.4 13.3299C16.4 14.1299 16.2 14.5299 16.2 14.8299C16 15.2299 15.9 15.4299 15.6 15.7299C15.4 15.9299 15 16.2299 14.7 16.3299C14.4 16.4299 14 16.5299 13.2 16.5299C12.3 16.5299 12.1 16.6299 10 16.6299C7.9 16.6299 7.6 16.6299 6.8 16.5299C6 16.5299 5.6 16.3299 5.3 16.3299C4.8 16.2299 4.6 16.1299 4.3 15.7299C4.1 15.5299 3.8 15.1299 3.7 14.8299C3.5 14.5299 3.4 14.1299 3.4 13.3299C3.4 12.4299 3.3 12.2299 3.3 10.1299C3.3 7.92988 3.3 7.72988 3.4 6.92988C3.4 6.12988 3.6 5.72988 3.6 5.42988C3.8 5.02988 3.9 4.82988 4.2 4.52988C4.4 4.32988 4.8 4.02988 5.1 3.92988C5.6 3.82988 6 3.62988 6.8 3.62988C7.7 3.62988 8 3.52988 10 3.52988C12 3.52988 12.3 3.52988 13.1 3.62988C13.9 3.62988 14.3 3.82988 14.6 3.82988C15 4.02988 15.2 4.12988 15.5 4.42988C15.8 4.72988 16 5.12988 16.1 5.42988C16.3 5.72988 16.4 6.12988 16.4 6.92988C16.4 7.82988 16.5 8.02988 16.5 10.1299C16.5 12.3299 16.5 12.5299 16.4 13.3299ZM10 6.02988C7.8 6.02988 5.9 7.82988 5.9 10.1299C5.9 12.4299 7.7 14.2299 10 14.2299C12.3 14.2299 14 12.3299 14 10.1299C14 7.92988 12.2 6.02988 10 6.02988ZM10 12.7299C8.6 12.7299 7.4 11.5299 7.4 10.1299C7.4 8.72988 8.5 7.52988 10 7.52988C11.5 7.52988 12.6 8.72988 12.6 10.1299C12.6 11.5299 11.4 12.7299 10 12.7299ZM15.1 5.92988C15.1 6.52988 14.7 6.92988 14.1 6.92988C13.5 6.92988 13.1 6.52988 13.1 5.92988C13.1 5.32988 13.5 4.92988 14.1 4.92988C14.7 4.92988 15.1 5.32988 15.1 5.92988Z" fill="white" stroke="white"/>
</svg>
