<svg width="25" height="24" viewBox="0 0 25 24" fill="none" xmlns="http://www.w3.org/2000/svg">
<path fill-rule="evenodd" clip-rule="evenodd" d="M1 1C0.4 1 0 1.4 0 2C0 2.6 0.4 3 1 3H2.7C2.8 3 3 3 3.2 3.5C3.3 3.7 3.4 4 3.4 4.3L3.5 4.6C3.5 4.8 3.6 5 3.6 5.2C3.7 5.7 4.4 8.1 5.1 10.4L6 13.5L6.2 14.2L6 14.4C5.5 14.9 5.2 15.7 5.2 16.8C5.2 18.6 6.9 20 8.5 20H20C18.9 20 18 20.9 18 22C18 23.1 18.9 24 20 24C21.1 24 22 23.1 22 22C22 20.9 21.1 20 20 20H23C23.6 20 24 19.6 24 19C24 18.4 23.6 18 23 18H8.5C7.8 18 7.2 17.4 7.2 16.8C7.2 16.1 7.4 15.8 7.5 15.7L7.6 15.6L23 14.8C23.6 14.8 24 14.3 23.9 13.7C23.9 13.2 23.4 12.8 22.9 12.8H22.6L24 5.2C24.1 4.7 23.7 4.1 23.2 4H5.4V3.9C5.3 3.5 5.2 3.1 5 2.7C4.7 2 4.1 1 2.7 1H1ZM6.6 8.2L5.9 6H21.8L20.6 12.9L8.1 13.5L7.9 12.9C7.5 11.4 7 9.8 6.6 8.2ZM8 24C9.1 24 10 23.1 10 22C10 20.9 9.1 20 8 20C6.9 20 6 20.9 6 22C6 23.1 6.9 24 8 24Z" fill="#1A1A1A"/>
</svg>
