<svg width="88" height="22" viewBox="0 0 88 22" fill="none" xmlns="http://www.w3.org/2000/svg">
<path d="M18.4703 0H3.839C1.81068 0 0.166809 1.64387 0.166809 3.67219V18.3035C0.166809 20.3318 1.81068 21.9757 3.839 21.9757H18.4703C20.4986 21.9757 22.1425 20.3318 22.1425 18.3035V3.67219C22.1425 1.64387 20.4986 0 18.4703 0ZM18.1477 16.8209C18.1477 17.4617 17.6285 17.9809 16.9877 17.9809H5.32157C4.68082 17.9809 4.16159 17.4617 4.16159 16.8209V5.15477C4.16159 4.51401 4.68082 3.99478 5.32157 3.99478H16.9877C17.6285 3.99478 18.1477 4.51401 18.1477 5.15477V16.8209ZM8.82363 13.9707C8.45465 13.9707 8.15857 13.6724 8.15857 13.3034V8.64578C8.15857 8.27679 8.45465 7.9763 8.82363 7.9763H13.4879C13.8547 7.9763 14.1529 8.27458 14.1529 8.64578V13.3012C14.1529 13.6702 13.8547 13.9685 13.4879 13.9685H8.82363V13.9707ZM27.969 13.6525H30.3685C30.4878 15.0113 31.4091 16.0719 33.2673 16.0719C34.9267 16.0719 35.9475 15.2522 35.9475 14.0127C35.9475 12.8527 35.1476 12.3334 33.707 11.9932L31.8466 11.5933C29.8271 11.1536 28.307 9.85437 28.307 7.73325C28.307 5.39339 30.3862 3.79371 33.0862 3.79371C35.9453 3.79371 37.7858 5.29396 37.9449 7.5123H35.6249C35.3487 6.47384 34.487 5.85518 33.0884 5.85518C31.608 5.85518 30.5894 6.65502 30.5894 7.67581C30.5894 8.6966 31.4688 9.31526 32.9889 9.65552L34.8295 10.0554C36.8489 10.4951 38.2277 11.7148 38.2277 13.8536C38.2277 16.5735 36.1883 18.193 33.2696 18.193C29.9884 18.1908 28.17 16.4122 27.969 13.6525ZM46.8116 21.9757V17.9964L46.9685 16.2509H46.8116C46.2614 17.5059 45.1058 18.193 43.5371 18.193C41.0072 18.193 39.1247 16.1338 39.1247 12.9764C39.1247 9.81902 41.0072 7.75977 43.5371 7.75977C45.086 7.75977 46.1841 8.48448 46.8116 9.62238H46.9685V7.9542H49.0476V21.9757H46.8116ZM46.8889 12.9742C46.8889 10.9547 45.6538 9.77704 44.1425 9.77704C42.6312 9.77704 41.3961 10.9547 41.3961 12.9742C41.3961 14.9937 42.6312 16.1713 44.1425 16.1713C45.6538 16.1713 46.8889 14.9959 46.8889 12.9742ZM50.7069 14.0149V7.9542H52.9429V13.8182C52.9429 15.4068 53.7074 16.1713 54.9823 16.1713C56.5511 16.1713 57.5718 15.0533 57.5718 13.3078V7.9542H59.8079V17.9942H57.7287V15.915H57.5718C57.0813 17.2496 56.0031 18.1908 54.3371 18.1908C51.942 18.1908 50.7069 16.6618 50.7069 14.0149ZM61.1689 15.1903C61.1689 13.3078 62.4836 12.2097 64.8168 12.0727L67.5809 11.896V11.1116C67.5809 10.1703 66.8937 9.60249 65.6785 9.60249C64.5605 9.60249 63.8932 10.1703 63.7165 10.9746H61.4805C61.7169 8.93522 63.4027 7.75756 65.6763 7.75756C68.2459 7.75756 69.8147 8.85568 69.8147 10.9746V17.9942H67.7356V16.1316H67.5787C67.1081 17.3667 66.127 18.1908 64.2445 18.1908C62.4438 18.1908 61.1689 16.9756 61.1689 15.1903ZM67.5831 13.9552V13.4249L65.3272 13.5818C64.112 13.6591 63.5618 14.1121 63.5618 15.0136C63.5618 15.778 64.1893 16.3282 65.0709 16.3282C66.6617 16.3282 67.5831 15.3096 67.5831 13.9552ZM71.4829 17.9964V7.9542H73.562V9.87647H73.7189C74.0127 8.56182 75.0136 7.9542 76.5028 7.9542H77.5236V9.97369H76.2488C74.7971 9.97369 73.7189 10.9149 73.7189 12.7002V17.9942H71.4829V17.9964ZM87.7536 13.3874H80.1242C80.2413 15.2301 81.5361 16.2708 82.9678 16.2708C84.1831 16.2708 84.9476 15.7803 85.3806 14.9561H87.5968C86.9891 16.9955 85.2039 18.1908 82.948 18.1908C79.9872 18.1908 77.9081 15.9747 77.9081 12.9742C77.9081 9.97369 80.0447 7.75756 82.9678 7.75756C85.9087 7.75756 87.831 9.77704 87.831 12.287C87.8332 12.7798 87.7934 13.0338 87.7536 13.3874ZM85.617 11.8385C85.5397 10.4465 84.3819 9.50527 82.9701 9.50527C81.6355 9.50527 80.5197 10.3493 80.2435 11.8385H85.617Z" fill="#1A1A1A"/>
</svg>
