<svg width="20" height="21" viewBox="0 0 20 21" fill="none" xmlns="http://www.w3.org/2000/svg">
<path d="M16.4 6.72969V7.22969C16.4 12.0297 13.1 17.3297 7.09998 17.3297C5.19998 17.3297 3.49998 16.9297 2.09998 15.9297C2.39998 15.9297 2.59998 16.0297 2.89998 16.0297C4.39998 16.0297 5.89998 15.4297 6.99998 14.4297C5.59998 14.4297 4.39998 13.3297 3.89998 11.9297C4.09998 11.9297 4.29998 12.0297 4.49998 12.0297C4.79998 12.0297 5.19998 12.0297 5.49998 11.9297C3.89998 11.5297 2.99998 10.0297 2.99998 8.22969C2.99998 8.52969 3.69998 8.62969 4.19998 8.72969C3.29998 8.02969 2.79998 6.92969 2.79998 5.72969C2.79998 5.02969 2.89998 4.42969 3.19998 3.92969C4.79998 6.12969 7.09998 7.52969 9.79998 7.72969V6.82969C9.79998 4.82969 11.3 2.92969 13.1 2.92969C14 2.92969 14.9 3.62969 15.5 4.32969C16.2 4.12969 16.9 3.82969 17.6 3.42969C17.4 4.22969 16.8 5.02969 16.2 5.42969C16.8 5.32969 17.4 5.12969 18 4.82969C17.6 5.62969 17 6.22969 16.4 6.72969Z" fill="white" stroke="white"/>
</svg>
